# xmcd
# 
# Track frame offsets:
#     149
#     14242
#     26967
#     40384
#     55879
#     68724
#     82332
#     96149
#     109289
#     123299
#     138649
#     152124
#     166504
#     192524
# 
# Disc length: 2570
# 
# Revision: 0
# Processed by: cddbd v1.5.1PL0 Copyright (c) Steve Scherf et al.
# Submitted via: BonkEnc v1.0beta2
# 
DISCID=ca0a090e
DTITLE=Truck Stop - Wilde Reiter
DYEAR=2002
DGENRE=Country
TTITLE0=So stell ich mir den Himmel vor
TTITLE1=Cops and Trucker
TTITLE2=Morgens in Montana
TTITLE3=Wilder Reiter
TTITLE4=Sagt´n Cowboy Howdy, Howdy
TTITLE5=Eine Hand voller Gründe
TTITLE6=Ein Wahrer Freund
TTITLE7=Bock auf´n Pickup Truck
TTITLE8=Ein Mann im besten Alter
TTITLE9=Mit ´ner Herde wilder Pferde
TTITLE10=Sitzt, passt, wackelt und hat Luft
TTITLE11=Ohne Dich keine Liebe
TTITLE12=Immer noch wach
TTITLE13=xx
EXTD=
EXTT0=
EXTT1=
EXTT2=
EXTT3=
EXTT4=
EXTT5=
EXTT6=
EXTT7=
EXTT8=
EXTT9=
EXTT10=
EXTT11=
EXTT12=
EXTT13=
PLAYORDER=
